<svg width="38" height="14" viewBox="0 0 38 14" fill="none" xmlns="http://www.w3.org/2000/svg">
<path d="M3.2007 6.834H8.2547V8.038H3.2007V6.834ZM3.3407 12H1.9407V2.2H8.8567V3.418H3.3407V12ZM10.8274 12V2.2H14.6494C15.5081 2.2 16.2408 2.33533 16.8474 2.606C17.4541 2.87667 17.9208 3.26867 18.2474 3.782C18.5741 4.29533 18.7374 4.90667 18.7374 5.616C18.7374 6.32533 18.5741 6.93667 18.2474 7.45C17.9208 7.954 17.4541 8.34133 16.8474 8.612C16.2408 8.88267 15.5081 9.018 14.6494 9.018H11.5974L12.2274 8.374V12H10.8274ZM17.3794 12L14.8874 8.444H16.3854L18.9054 12H17.3794ZM12.2274 8.514L11.5974 7.828H14.6074C15.5034 7.828 16.1801 7.63667 16.6374 7.254C17.1041 6.862 17.3374 6.316 17.3374 5.616C17.3374 4.916 17.1041 4.37467 16.6374 3.992C16.1801 3.60933 15.5034 3.418 14.6074 3.418H11.5974L12.2274 2.718V8.514Z" fill="#1F2A37"/>
<path d="M33.0123 9.91671C32.7471 9.91665 32.4928 9.8144 32.3053 9.63243L28.3053 5.75149C28.2098 5.66199 28.1336 5.55493 28.0812 5.43655C28.0288 5.31818 28.0012 5.19087 28 5.06204C27.9989 4.93321 28.0242 4.80545 28.0745 4.68621C28.1247 4.56698 28.199 4.45865 28.2929 4.36755C28.3868 4.27645 28.4984 4.20441 28.6213 4.15562C28.7442 4.10684 28.8759 4.08229 29.0087 4.08341C29.1415 4.08453 29.2727 4.1113 29.3947 4.16214C29.5167 4.21299 29.627 4.28691 29.7193 4.37958L33.0123 7.57456L36.3053 4.37958C36.4939 4.20284 36.7465 4.10505 37.0087 4.10726C37.2709 4.10947 37.5217 4.21151 37.7071 4.39139C37.8925 4.57128 37.9977 4.81463 38 5.06902C38.0022 5.32342 37.9014 5.5685 37.7193 5.75149L33.7193 9.63243C33.5318 9.8144 33.2775 9.91665 33.0123 9.91671Z" fill="#1F2A37"/>
</svg>
