<svg width="14" height="16" viewBox="0 0 14 16" fill="none" xmlns="http://www.w3.org/2000/svg">
<path d="M9.25 11.375V13.25C9.25 13.9489 9.25 14.2984 9.13582 14.574C8.98358 14.9416 8.69157 15.2336 8.32403 15.3858C8.04837 15.5 7.69891 15.5 7 15.5C6.30109 15.5 5.95163 15.5 5.67597 15.3858C5.30843 15.2336 5.01642 14.9416 4.86418 14.574C4.75 14.2984 4.75 13.9489 4.75 13.25V11.375M9.25 11.375C11.2366 10.507 12.625 8.43161 12.625 6.125C12.625 3.0184 10.1066 0.5 7 0.5C3.8934 0.5 1.375 3.0184 1.375 6.125C1.375 8.43161 2.76336 10.507 4.75 11.375M9.25 11.375H4.75" stroke="#282F35" stroke-linecap="round" stroke-linejoin="round"/>
</svg>
